<?xml version="1.0" encoding="UTF-8"?> <svg xmlns="http://www.w3.org/2000/svg" fill="none" viewBox="0 0 26 24"><g clip-path="url(#a)" fill="#FFF"><path opacity=".4" d="M.04 17.76a1.44 1.44 0 0 0 1.764 1.404 8.572 8.572 0 0 0 2.62-1.125c1.309.697 2.772 1.161 4.257 1.161 1.435 0 2.727-.445 3.618-.85.26-.122.499-.239.702-.347.202.108.436.23.702.346.89.405 2.182.851 3.617.851 1.485 0 2.948-.463 4.253-1.161.603.378 1.517.868 2.619 1.125a1.44 1.44 0 0 0 .652-2.804 5.683 5.683 0 0 1-2.277-1.133 1.446 1.446 0 0 0-1.764-.077c-.99.684-2.272 1.17-3.483 1.17-1.237 0-2.475-.477-3.487-1.175a1.433 1.433 0 0 0-1.665 0c-1.012.698-2.25 1.175-3.487 1.175-1.211 0-2.489-.486-3.483-1.175a1.433 1.433 0 0 0-1.764.077 5.683 5.683 0 0 1-2.277 1.134A1.444 1.444 0 0 0 .04 17.76Z"></path><path d="m20.195 13.85-6.228-5.342a7.124 7.124 0 0 1 3.353-.828h2.88c.797 0 1.44-.644 1.44-1.44 0-.797-.643-1.44-1.44-1.44h-2.88c-5.481 0-9.94 4.374-10.076 9.819.486.18.981.279 1.436.279.95 0 1.89-.383 2.664-.914a2.89 2.89 0 0 1 3.317 0c.828.572 1.781.914 2.664.914.855 0 1.854-.356 2.663-.914.073-.05.14-.094.216-.135h-.009ZM4.36 10.56a2.88 2.88 0 1 0 0-5.76 2.88 2.88 0 0 0 0 5.76Z"></path></g><defs><clipPath id="a"><path fill="#FFF" transform="translate(.04 .48)" d="M0 0h25.92v23.04H0z"></path></clipPath></defs></svg> 