<svg fill="none" xmlns="http://www.w3.org/2000/svg" viewBox="0 0 1440 68"><g clip-path="url(#a)"><path d="M1440 0c-69.02 69.82-130.91 0-130.91 0-69.02 69.82-130.91 0-130.91 0-69.02 69.82-130.91 0-130.91 0-69.02 69.82-130.91 0-130.91 0-69.02 69.82-130.91 0-130.91 0v.37c-69.02 69.82-130.91 0-130.91 0V0c-69.02 69.82-130.91 0-130.91 0-69.02 69.82-130.91 0-130.91 0-69.02 69.82-130.91 0-130.91 0C192.79 69.82 130.9 0 130.9 0 61.88 69.82 0 0 0 0v39.28s58.71 64.18 130.91 0c0 0 58.71 64.18 130.91 0 0 0 58.71 64.18 130.91 0 0 0 58.71 64.18 130.91 0 0 0 58.71 64.18 130.91 0 0 0 58.71 64.18 130.91 0 0 0 58.71 64.18 130.91 0 0 0 58.71 64.18 130.91 0 0 0 58.71 64.18 130.91 0 0 0 58.71 64.18 130.91 0 0 0 58.71 64.18 130.91 0V0h-.01Z" fill="#E8F0FE"/></g><defs><clipPath id="a"><path fill="#fff" d="M0 0h1440v67.8H0z"/></clipPath></defs></svg>