<?xml version="1.0" encoding="UTF-8"?> <svg xmlns="http://www.w3.org/2000/svg" id="Calque_2" data-name="Calque 2" viewBox="0 0 287.98 230.57"><defs><style> .cls-1, .cls-2 { stroke-linecap: round; stroke-linejoin: round; } .cls-1, .cls-2, .cls-3, .cls-4 { stroke: #000; stroke-width: 2px; } .cls-1, .cls-3 { fill: #fff; } .cls-2 { fill: none; } .cls-3, .cls-4 { stroke-miterlimit: 10; } .cls-4 { fill: #4e69cc; } </style></defs><g id="Calque_6" data-name="Calque 6"><g><path class="cls-1" d="M196.29,62.04s-15-44-30-48-26,10-33-2-15-15-28-5.08-46,46.08-46,46.08l137,9Z"></path><path class="cls-4" d="M245.29,131.04c72-26,41-78-19.53-38.45-21.43-29.41-51.11-47.64-70.48-53.07C99.52,23.87,34.29,52.04,1.29,114.04c0,0,16.67,11.92,34.47,9.83-18.47,2.17-34.47-1.83-34.47-1.83,27,138,192,113,226,48,54,44,88-16,18-39Z"></path><rect class="cls-4" x="68.46" y="53.76" width="37" height="14.34" rx="7.17" ry="7.17" transform="translate(2.63 -3.59) rotate(2.4)"></rect><rect class="cls-4" x="13.46" y="53.76" width="37" height="14.34" rx="7.17" ry="7.17" transform="translate(-3.34 1.87) rotate(-3.19)"></rect><g><path class="cls-3" d="M81.98,77.77c-33.49-2.58-32.3,36.17-32.3,36.17,0,0-1.29,29.71,29.71,29.71s29.95-32.94,29.95-32.94c1.06-18.73-10.57-31.65-27.36-32.94Z"></path><g><path d="M87.74,105.34c-.79-9.55-7.16-17-14.92-17-8.28,0-15,8.51-15,19,0,8.74,4.66,16.08,11,18.3v-20.3h18.92Z"></path><path d="M87.74,105.34h-18.92v20.3c1.28.45,2.61.7,4,.7,1.96,0,3.82-.49,5.54-1.35l-3.46-8.65,8.35,4.64c2.82-3.45,4.57-8.28,4.57-13.64,0-.68-.03-1.34-.08-2Z"></path></g></g><g><path class="cls-4" d="M74.37,178.19c16.66,12.81,5.13,24.34,5.13,24.34-1.28,15.38-14.09,14.09-14.09,14.09-5.13,14.09-16.66,12.93-16.66,12.93,0,0,5.13-14.21,0-34.71"></path><path class="cls-2" d="M60.28,199.97c3.84,3.84,5.13,16.66,5.13,16.66"></path><path class="cls-2" d="M69.25,189.72c10.25,6.41,10.25,12.81,10.25,12.81"></path></g><path class="cls-2" d="M130.96,105.11s11.82-5.91,18.92-15.37c8.28,17.74-3.55,26.01-3.55,26.01,0,0,10.64,8.28,0,16.55,0,0,9.46,8.28,2.36,22.47,0,0-9.46-11.98-17.74-13.68"></path><path class="cls-4" d="M57.73,86.43l49.09,8.86s-5.63-16.43-25.16-17.86c-16.07-1.18-23.93,9-23.93,9Z"></path><path class="cls-2" d="M32.58,116.25c4,3,5,10,0,15"></path></g></g></svg> 