<?xml version="1.0" encoding="UTF-8"?> <svg xmlns="http://www.w3.org/2000/svg" id="Calque_2" data-name="Calque 2" viewBox="0 0 289.53 210.07"><defs><style> .cls-1 { fill: none; } .cls-1, .cls-2, .cls-3 { stroke: #000; stroke-width: 2px; } .cls-1, .cls-3 { stroke-linecap: round; stroke-linejoin: round; } .cls-2 { fill: #fff; stroke-miterlimit: 10; } .cls-3 { fill: #d4d9fa; } </style></defs><g id="Calque_6" data-name="Calque 6"><g><path class="cls-3" d="M245,96.77c65.53,19.3,55.53-46.7-19.53-38.45-21.43-29.41-51.11-47.64-70.48-53.07C99.22-10.39,34,17.77,1,79.77c0,0,16.67,11.92,34.47,9.83-18.47,2.17-34.47-1.83-34.47-1.83,27,138,192,113,226,48,51.53,27.3,73.53-10.7,18-39Z"></path><rect class="cls-2" x="69.17" y="20.49" width="37" height="14.34" rx="7.17" ry="7.17" transform="translate(1.24 -3.65) rotate(2.4)"></rect><rect class="cls-2" x="14.17" y="20.49" width="37" height="14.34" rx="7.17" ry="7.17"></rect><g><path class="cls-2" d="M82.69,44.5c-33.49-2.58-32.3,36.17-32.3,36.17,0,0-1.29,29.71,29.71,29.71s29.95-32.94,29.95-32.94c1.06-18.73-10.57-31.65-27.36-32.94Z"></path><g><path d="M91.44,77.07c-.79-9.55-7.16-17-14.92-17-8.28,0-15,8.51-15,19,0,8.74,4.66,16.08,11,18.3v-20.3h18.92Z"></path><path d="M91.44,77.07h-18.92v20.3c1.28.45,2.61.7,4,.7,1.96,0,3.82-.49,5.54-1.35l-3.46-8.65,8.35,4.64c2.82-3.45,4.57-8.28,4.57-13.64,0-.68-.03-1.34-.08-2Z"></path></g></g><g><path class="cls-3" d="M92.49,142.92c21.44,16.49,6.6,31.34,6.6,31.34-1.65,19.79-18.14,18.14-18.14,18.14-6.6,18.14-21.44,16.64-21.44,16.64,0,0,6.6-18.29,0-44.68"></path><path class="cls-1" d="M74.34,170.96c4.95,4.95,6.6,21.44,6.6,21.44"></path><path class="cls-1" d="M85.89,157.77c13.2,8.25,13.2,16.49,13.2,16.49"></path></g><path class="cls-1" d="M125.67,79.76s14.84-7.42,23.74-19.29c10.39,22.26-4.45,32.64-4.45,32.64,0,0,13.35,10.39,0,20.77,0,0,11.87,10.39,2.97,28.19,0,0-11.87-15.03-22.26-17.16"></path><path class="cls-3" d="M53.57,64.19c30.49-9.38,57.17,5.05,57.17,5.05,0,0-5.19-27.41-30.81-25.41-24.37,2.68-26.36,20.36-26.36,20.36Z"></path><path class="cls-2" d="M189.44,22.78c-11.91,40.3-37.44,48.66-21.17,57.48,16.27,8.82,57.21-21.93,57.21-21.93-14.94-22.25-36.04-35.55-36.04-35.55Z"></path></g></g></svg> 