<?xml version="1.0" encoding="UTF-8"?> <svg xmlns="http://www.w3.org/2000/svg" id="Calque_2" data-name="Calque 2" viewBox="0 0 242.79 207.11"><defs><style> .cls-1, .cls-2, .cls-3, .cls-4, .cls-5 { stroke: #000; stroke-width: 2px; } .cls-1, .cls-2, .cls-4 { stroke-linecap: round; stroke-linejoin: round; } .cls-1, .cls-6, .cls-5 { fill: #fff; } .cls-2, .cls-3, .cls-7 { fill: #f25b38; } .cls-3, .cls-5 { stroke-miterlimit: 10; } .cls-4 { fill: none; } </style></defs><g id="Calque_6" data-name="Calque 6"><g><path class="cls-1" d="M78.6,28.04l68.47,2.96S132.07,3.63,117.07,1.15c-15-2.49-21.94,27.68-38.47,26.9"></path><g><path class="cls-7" d="M6.5,80.55C50.5,16.55,154.5-12.45,210.5,89.55c33-14,46,18,8.5,29.5,31,20,12,44-20,24C157,236.05,11.5,204.55,1,105.05c0,0,15.5,1.5,31-4-14.5-6.5-25.5-20.5-25.5-20.5Z"></path><path d="M111.19,199.56c-6.09,0-12.28-.5-18.52-1.5C50.72,191.31,5.79,159.97,0,105.15c-.03-.3.07-.59.28-.81s.52-.32.81-.29c.15.01,13.94,1.27,28.24-3.17-13.41-6.84-23.19-19.17-23.62-19.71-.27-.34-.29-.82-.04-1.18C31.44,42.51,74.77,19.63,116.08,21.7c27.22,1.37,65.71,14.05,94.87,66.58,11.07-4.48,21.21-4.26,27.24.62,3.66,2.96,5.25,7.3,4.36,11.9-1.48,7.62-9.37,14.47-21.28,18.56,14.17,9.79,16.75,20.18,12.85,26.32-4.54,7.15-17.85,8.95-34.68-1.19-9.64,20.74-25.2,36.56-45.08,45.8-13.23,6.15-27.9,9.27-43.17,9.27ZM2.13,106.13c6.19,53.03,49.96,83.38,90.87,89.96,21.45,3.45,42.38.82,60.52-7.61,19.77-9.19,35.18-25.04,44.57-45.84.12-.26.34-.46.62-.55.27-.08.57-.04.82.11,11.95,7.47,27.54,10.85,32.9,2.41,3.52-5.55.57-15.34-13.97-24.72-.33-.21-.5-.59-.45-.98.05-.38.33-.7.7-.82,12.28-3.77,20.46-10.37,21.88-17.67.75-3.85-.59-7.48-3.66-9.96-5.6-4.53-15.33-4.53-26.04.01-.47.2-1.02.01-1.27-.44-28.76-52.38-66.8-64.98-93.65-66.33-40.4-2.01-82.8,20.25-108.23,56.79,2.23,2.67,12.2,14.05,24.66,19.64.37.17.61.54.59.95s-.28.77-.67.9c-13.2,4.69-26.21,4.38-30.21,4.14Z"></path></g><g><circle class="cls-5" cx="82.1" cy="86.5" r="31"></circle><path d="M83.5,79.55c-4.79,0-8.78-3.36-9.76-7.85-.32-.02-.63-.05-.95-.05-7.97,0-14.43,6.46-14.43,14.43s6.46,14.43,14.43,14.43,14.43-6.46,14.43-14.43c0-2.43-.61-4.72-1.67-6.74-.66.14-1.34.21-2.04.21Z"></path></g><g><circle class="cls-6" cx="59.5" cy="129.55" r="2"></circle><path d="M59.5,132.55c-1.65,0-3-1.35-3-3s1.35-3,3-3,3,1.35,3,3-1.35,3-3,3ZM59.5,128.55c-.55,0-1,.45-1,1s.45,1,1,1,1-.45,1-1-.45-1-1-1Z"></path></g><g><circle class="cls-6" cx="67.5" cy="138.55" r="2"></circle><path d="M67.5,141.55c-1.65,0-3-1.35-3-3s1.35-3,3-3,3,1.35,3,3-1.35,3-3,3ZM67.5,137.55c-.55,0-1,.45-1,1s.45,1,1,1,1-.45,1-1-.45-1-1-1Z"></path></g><g><circle class="cls-6" cx="79.5" cy="132.55" r="2"></circle><path d="M79.5,135.55c-1.65,0-3-1.35-3-3s1.35-3,3-3,3,1.35,3,3-1.35,3-3,3ZM79.5,131.55c-.55,0-1,.45-1,1s.45,1,1,1,1-.45,1-1-.45-1-1-1Z"></path></g><path class="cls-4" d="M131.11,86s10-5,16-13c7,15-3,22-3,22,0,0,9,7,0,14,0,0,8,7,2,19,0,0-8-10.13-15-11.57"></path><g><path class="cls-2" d="M84.56,166c13,10,4,19,4,19-1,12-11,11-11,11-4,11-13,10.09-13,10.09,0,0,4-11.09,0-27.09"></path><path class="cls-4" d="M73.56,183c3,3,4,13,4,13"></path><path class="cls-4" d="M80.56,175c8,5,8,10,8,10"></path></g><rect class="cls-3" x="69.6" y="32.66" width="37" height="14.34" rx="7.17" ry="7.17" transform="translate(7.04 -12.87) rotate(8.71)"></rect><rect class="cls-3" x="14.6" y="32.66" width="37" height="14.34" rx="7.17" ry="7.17" transform="translate(-6.59 6.56) rotate(-10.3)"></rect></g></g></svg> 