<?xml version="1.0" encoding="UTF-8"?> <svg xmlns="http://www.w3.org/2000/svg" id="Calque_2" data-name="Calque 2" viewBox="0 0 281.15 236.69"><defs><style> .cls-1, .cls-2 { fill: #8f9ce9; } .cls-3 { fill: none; stroke-linecap: round; stroke-linejoin: round; } .cls-3, .cls-2, .cls-4 { stroke: #000; stroke-width: 2px; } .cls-2, .cls-4 { stroke-miterlimit: 10; } .cls-5, .cls-4 { fill: #fff; } </style></defs><g id="Calque_6" data-name="Calque 6"><g><g><path class="cls-5" d="M73.62,38.47s20.38-21.59,33.38-31.51c13-9.92,21-6.92,28,5.08s18-2,33,2,20.77,33.84,20.77,33.84l-115.14-9.4Z"></path><path d="M188.77,48.87s-.05,0-.08,0l-115.14-9.4c-.38-.03-.71-.28-.85-.64-.14-.36-.06-.77.21-1.04.21-.22,20.58-21.76,33.5-31.62C112.87,1.22,118.35-.72,123.17.24c4.71.93,8.75,4.52,12.7,11.3,3.56,6.1,8.17,4.77,14.54,2.92,5.18-1.5,11.05-3.2,17.85-1.39,15.43,4.11,21.25,33.37,21.49,34.61.06.31-.03.62-.24.86-.19.21-.46.33-.75.33ZM75.79,37.64l111.71,9.12c-1.31-5.71-7.28-28.44-19.76-31.76-6.26-1.67-11.85-.05-16.78,1.37-6.42,1.86-12.48,3.61-16.82-3.84-3.64-6.24-7.25-9.53-11.36-10.34-4.21-.84-9.18.98-15.17,5.56-10.8,8.24-26.94,24.81-31.81,29.89Z"></path></g><g><path class="cls-1" d="M245,122.03c60-23,26-74-19.53-38.45-21.43-29.41-51.11-47.64-70.48-53.07C99.22,14.87,38.81,45.05,6.7,91.74c0,0,10.96,25.22,28.76,23.12-18.47,2.17-34.47-1.83-34.47-1.83,27,138,192,113,226,48,51,39,80-31,18-39Z"></path><path d="M119.65,215.39c-6.76,0-13.51-.46-20.17-1.43-24-3.49-45.41-13.29-61.92-28.35C18.52,168.23,5.89,144.21.02,114.23c-.07-.34.04-.68.29-.92.25-.24.6-.33.93-.25.13.03,10.9,2.67,24.76,2.42-4.31-1.75-8.48-5.04-12.37-9.77-5-6.08-7.74-12.32-7.85-12.58-.14-.32-.1-.68.09-.96,16.22-23.59,39.55-42.89,65.69-54.34,28.01-12.27,56.95-14.79,83.69-7.29,19.88,5.58,49.25,23.98,70.41,52.62,22.46-17.12,38.01-11.23,42.28-8.99,6.84,3.59,10.66,10.18,10.22,17.63-.69,11.81-11.62,23.17-29.44,30.79,17.34,3.12,29.14,11.94,31.84,24.02,2.11,9.43-1.82,18.91-10.01,24.15-11.3,7.23-27.4,4.51-43.24-7.24-16.85,30.77-62.23,51.85-107.68,51.85ZM2.28,115.34c5.91,28.86,18.23,51.99,36.63,68.78,16.21,14.79,37.26,24.42,60.86,27.85,51.23,7.45,107.91-15.16,126.35-50.41.14-.26.38-.45.67-.51.29-.06.59,0,.82.18,15.45,11.81,31.1,14.75,41.88,7.85,7.48-4.78,11.07-13.43,9.14-22.03-2.7-12.04-15.32-20.65-33.76-23.03-.45-.06-.81-.42-.87-.87-.05-.45.21-.89.63-1.05,19.06-7.31,30.85-18.67,31.54-30.41.39-6.64-3.03-12.53-9.16-15.74-12.73-6.68-29.49.49-40.93,9.42-.21.17-.49.24-.75.2-.27-.04-.51-.18-.67-.4-20.93-28.72-50.21-47.17-69.94-52.7-26.29-7.38-54.77-4.89-82.35,7.19-25.63,11.23-48.53,30.1-64.52,53.17,1.65,3.48,12,23.86,27.5,22.03.54-.07,1.04.33,1.11.88s-.33,1.05-.88,1.11c-15.17,1.78-28.84-.59-33.3-1.52Z"></path></g><g><path class="cls-5" d="M81,132.4c-12-.36-18.59,5.01-12.29,9.32,6.29,4.31,17.41,3.69,22.85,0,5.44-3.69.46-8.99-10.56-9.32Z"></path><path d="M79.92,145.76c-4.23,0-8.53-.98-11.78-3.21-3.18-2.18-3.04-4.39-2.68-5.51,1.16-3.56,7.58-5.86,15.57-5.64h0c7.27.22,12.6,2.56,13.59,5.96.32,1.09.41,3.21-2.5,5.19-2.98,2.02-7.54,3.2-12.19,3.2ZM79.84,133.38c-7.2,0-11.77,2.15-12.47,4.28-.43,1.3.8,2.48,1.91,3.24,6.08,4.17,16.67,3.42,21.72,0,.98-.66,2.07-1.72,1.7-2.97-.61-2.09-4.83-4.31-11.73-4.52-.38-.01-.76-.02-1.13-.02Z"></path></g><g><path class="cls-4" d="M88.77,54.15c-33.49-2.58-32.3,36.17-32.3,36.17,0,0-1.29,29.71,29.71,29.71s29.95-32.94,29.95-32.94c1.06-18.73-10.57-31.65-27.36-32.94Z"></path><g><path d="M90.92,85.03c-.79-9.55-7.16-17-14.92-17-8.28,0-15,8.51-15,19,0,8.74,4.66,16.08,11,18.3v-20.3h18.92Z"></path><path d="M90.92,85.03h-18.92v20.3c1.28.45,2.61.7,4,.7,1.96,0,3.82-.49,5.54-1.35l-3.46-8.65,8.35,4.64c2.82-3.45,4.57-8.28,4.57-13.64,0-.68-.03-1.34-.08-2Z"></path></g></g><path class="cls-3" d="M137.68,94.08s10-5,16-13c7,15-3,22-3,22,0,0,9,7,0,14,0,0,8,7,2,19,0,0-8-10.13-15-11.57"></path><rect class="cls-2" x="70.82" y="30.43" width="37" height="14.34" rx="7.17" ry="7.17" transform="translate(6.72 -13.09) rotate(8.71)"></rect><rect class="cls-2" x="15.82" y="30.43" width="37" height="14.34" rx="7.17" ry="7.17" transform="translate(-2.04 1.97) rotate(-3.19)"></rect><g><path class="cls-2" d="M99.63,184.3c16.66,12.81,5.13,24.34,5.13,24.34-1.28,15.38-14.09,14.09-14.09,14.09-5.13,14.09-16.66,12.93-16.66,12.93,0,0,5.13-14.21,0-34.71"></path><path class="cls-3" d="M85.53,206.08c3.84,3.84,5.13,16.66,5.13,16.66"></path><path class="cls-3" d="M94.5,195.83c10.25,6.41,10.25,12.81,10.25,12.81"></path></g><path class="cls-3" d="M34,109.03c4,3,5,10,0,15"></path></g></g></svg> 